<svg width="30" height="30" viewBox="0 0 30 30" fill="none" xmlns="http://www.w3.org/2000/svg">
<g clip-path="url(#clip0_43_85)">
<path fill-rule="evenodd" clip-rule="evenodd" d="M6.88063 11.0583C7.97096 13.4813 10.0186 16.3825 12.7867 19.1507C15.5549 21.9189 18.4561 23.9665 20.8791 25.0568C22.094 25.6035 23.1386 25.8868 23.9565 25.9313C24.7752 25.9759 25.2493 25.78 25.5147 25.5147C25.78 25.2493 25.9759 24.7752 25.9313 23.9565C25.8868 23.1386 25.6035 22.094 25.0568 20.8791C23.9665 18.4561 21.9189 15.5549 19.1507 12.7867C16.3825 10.0186 13.4813 7.97096 11.0583 6.88063C9.84343 6.33392 8.79884 6.05062 7.98087 6.00611C7.16227 5.96157 6.68811 6.15743 6.42277 6.42277C6.15743 6.68811 5.96157 7.16227 6.00611 7.98087C6.05062 8.79884 6.33392 9.84343 6.88063 11.0583ZM4.00907 8.08954C3.94651 6.93991 4.19996 5.81715 5.00856 5.00856C5.81715 4.19996 6.93991 3.94651 8.08954 4.00907C9.23981 4.07166 10.5348 4.45185 11.8791 5.05679C14.5746 6.26977 17.6705 8.47809 20.5649 11.3725C23.4593 14.2669 25.6677 17.3628 26.8806 20.0583C27.4856 21.4027 27.8658 22.6976 27.9284 23.8479C27.9909 24.9975 27.7375 26.1203 26.9289 26.9289C26.1203 27.7375 24.9975 27.9909 23.8479 27.9284C22.6976 27.8658 21.4027 27.4856 20.0583 26.8806C17.3628 25.6677 14.2669 23.4593 11.3725 20.5649C8.47809 17.6705 6.26977 14.5746 5.05679 11.8791C4.45185 10.5348 4.07166 9.23981 4.00907 8.08954Z" fill="white"/>
<path fill-rule="evenodd" clip-rule="evenodd" d="M6.00611 23.9567C5.96157 24.7753 6.15743 25.2494 6.42277 25.5148C6.68811 25.7801 7.16227 25.976 7.98087 25.9314C8.79884 25.8869 9.84343 25.6036 11.0583 25.0569C13.4813 23.9666 16.3825 21.919 19.1507 19.1508C21.9189 16.3826 23.9665 13.4814 25.0568 11.0585C25.6035 9.84354 25.8868 8.79894 25.9313 7.98098C25.9759 7.16237 25.78 6.68822 25.5147 6.42288C25.2493 6.15753 24.7752 5.96168 23.9565 6.00622C23.1386 6.05073 22.094 6.33403 20.8791 6.88074C18.4561 7.97106 15.5549 10.0187 12.7867 12.7868C10.0186 15.555 7.97096 18.4562 6.88063 20.8792C6.33392 22.0941 6.05062 23.1387 6.00611 23.9567ZM5.05679 20.0585C6.26977 17.363 8.47809 14.2671 11.3725 11.3726C14.2669 8.47819 17.3628 6.26987 20.0583 5.0569C21.4027 4.45196 22.6976 4.07176 23.8479 4.00917C24.9975 3.94662 26.1203 4.20006 26.9289 5.00866C27.7375 5.81726 27.9909 6.94002 27.9284 8.08965C27.8658 9.23992 27.4856 10.5349 26.8806 11.8792C25.6677 14.5747 23.4593 17.6706 20.5649 20.565C17.6705 23.4594 14.5746 25.6678 11.8791 26.8807C10.5348 27.4857 9.23981 27.8659 8.08954 27.9285C6.93991 27.991 5.81715 27.7376 5.00856 26.929C4.19996 26.1204 3.94651 24.9976 4.00907 23.848C4.07166 22.6977 4.45185 21.4028 5.05679 20.0585Z" fill="white"/>
<path d="M15.9661 17.4688C16.7945 17.4688 17.4661 16.7972 17.4661 15.9688C17.4661 15.1403 16.7945 14.4688 15.9661 14.4688C15.1376 14.4688 14.4661 15.1403 14.4661 15.9688C14.4661 16.7972 15.1376 17.4688 15.9661 17.4688Z" fill="white"/>
</g>
<defs>
<clipPath id="clip0_43_85">
<rect width="30" height="30" fill="white"/>
</clipPath>
</defs>
</svg>
