<svg width="24" height="24" viewBox="0 0 24 24" fill="none" xmlns="http://www.w3.org/2000/svg">
<path fill-rule="evenodd" clip-rule="evenodd" d="M2.88063 7.05835C3.97096 9.48129 6.01856 12.3825 8.78673 15.1507C11.5549 17.9189 14.4561 19.9665 16.8791 21.0568C18.094 21.6035 19.1386 21.8868 19.9565 21.9313C20.7752 21.9759 21.2493 21.78 21.5147 21.5147C21.78 21.2493 21.9759 20.7752 21.9313 19.9565C21.8868 19.1386 21.6035 18.094 21.0568 16.8791C19.9665 14.4561 17.9189 11.5549 15.1507 8.78673C12.3825 6.01856 9.48129 3.97096 7.05835 2.88063C5.84343 2.33392 4.79884 2.05062 3.98087 2.00611C3.16227 1.96157 2.68811 2.15743 2.42277 2.42277C2.15743 2.68811 1.96157 3.16227 2.00611 3.98087C2.05062 4.79884 2.33392 5.84343 2.88063 7.05835ZM0.00906756 4.08954C-0.0534868 2.93991 0.199958 1.81715 1.00856 1.00856C1.81715 0.199958 2.93991 -0.0534868 4.08954 0.00906756C5.23981 0.0716567 6.53477 0.451852 7.87908 1.05679C10.5746 2.26977 13.6705 4.47809 16.5649 7.37252C19.4593 10.2669 21.6677 13.3628 22.8806 16.0583C23.4856 17.4027 23.8658 18.6976 23.9284 19.8479C23.9909 20.9975 23.7375 22.1203 22.9289 22.9289C22.1203 23.7375 20.9975 23.9909 19.8479 23.9284C18.6976 23.8658 17.4027 23.4856 16.0583 22.8806C13.3628 21.6677 10.2669 19.4593 7.37252 16.5649C4.47809 13.6705 2.26977 10.5746 1.05679 7.87908C0.451852 6.53477 0.0716569 5.23981 0.00906756 4.08954Z" fill="black"/>
<path fill-rule="evenodd" clip-rule="evenodd" d="M2.00611 19.9567C1.96157 20.7753 2.15743 21.2494 2.42277 21.5148C2.68811 21.7801 3.16227 21.976 3.98087 21.9314C4.79884 21.8869 5.84343 21.6036 7.05835 21.0569C9.48129 19.9666 12.3825 17.919 15.1507 15.1508C17.9189 12.3826 19.9665 9.4814 21.0568 7.05845C21.6035 5.84354 21.8868 4.79894 21.9313 3.98098C21.9759 3.16237 21.78 2.68822 21.5147 2.42288C21.2493 2.15753 20.7752 1.96168 19.9565 2.00622C19.1386 2.05073 18.094 2.33403 16.8791 2.88074C14.4561 3.97106 11.5549 6.01867 8.78673 8.78684C6.01856 11.555 3.97096 14.4562 2.88063 16.8792C2.33392 18.0941 2.05062 19.1387 2.00611 19.9567ZM1.05679 16.0585C2.26977 13.363 4.47809 10.2671 7.37252 7.37262C10.2669 4.47819 13.3628 2.26987 16.0583 1.0569C17.4027 0.451959 18.6976 0.071763 19.8479 0.00917376C20.9975 -0.0533806 22.1203 0.200065 22.9289 1.00866C23.7375 1.81726 23.9909 2.94002 23.9284 4.08965C23.8658 5.23992 23.4856 6.53488 22.8806 7.87918C21.6677 10.5747 19.4593 13.6706 16.5649 16.565C13.6705 19.4594 10.5746 21.6678 7.87908 22.8807C6.53477 23.4857 5.23981 23.8659 4.08954 23.9285C2.93991 23.991 1.81715 23.7376 1.00856 22.929C0.199958 22.1204 -0.0534868 20.9976 0.00906756 19.848C0.0716569 18.6977 0.451852 17.4028 1.05679 16.0585Z" fill="black"/>
<path d="M11.9661 13.4688C12.7945 13.4688 13.4661 12.7972 13.4661 11.9688C13.4661 11.1403 12.7945 10.4688 11.9661 10.4688C11.1376 10.4688 10.4661 11.1403 10.4661 11.9688C10.4661 12.7972 11.1376 13.4688 11.9661 13.4688Z" fill="black"/>
</svg>
