<svg width="30" height="30" viewBox="0 0 30 30" fill="none" xmlns="http://www.w3.org/2000/svg">
<g clip-path="url(#clip0_43_82)">
<path fill-rule="evenodd" clip-rule="evenodd" d="M14.5216 2.73429C13.3384 2.73429 12.3791 3.70487 12.3791 4.90214C12.3791 6.09942 13.3384 7.07 14.5216 7.07C15.7049 7.07 16.6642 6.09942 16.6642 4.90214C16.6642 3.70487 15.7049 2.73429 14.5216 2.73429ZM10.6651 4.90214C10.6651 2.74705 12.3917 1 14.5216 1C16.6516 1 18.3782 2.74705 18.3782 4.90214C18.3782 7.05724 16.6516 8.80429 14.5216 8.80429C12.3917 8.80429 10.6651 7.05724 10.6651 4.90214Z" fill="white"/>
<path fill-rule="evenodd" clip-rule="evenodd" d="M11.9508 8.80429H17.0947C17.4886 8.80514 17.8786 8.8848 18.242 9.03867C18.6054 9.19255 18.9352 9.41761 19.2124 9.7009C19.2363 9.72539 19.2588 9.75129 19.2797 9.77848L23.5143 15.2858C23.8496 15.6996 24.0219 16.2243 23.9978 16.7591C23.9734 17.2993 23.7504 17.8108 23.3725 18.1932C22.9946 18.5756 22.4891 18.8012 21.9552 18.8259C21.4268 18.8503 20.9084 18.6761 20.4996 18.3371L18.9526 17.1227L21.0717 23.9035C21.1832 24.1414 21.251 24.398 21.2716 24.661C21.2944 24.9526 21.2586 25.2459 21.1665 25.5232C21.0743 25.8005 20.9276 26.0561 20.7352 26.2745C20.5429 26.4929 20.3088 26.6696 20.0472 26.7941C19.7855 26.9185 19.5016 26.9881 19.2127 26.9986C18.9237 27.0091 18.6357 26.9603 18.3659 26.8552C18.096 26.7501 17.85 26.5908 17.6427 26.3869C17.4549 26.2023 17.3023 25.9846 17.1923 25.7448L14.5218 21.489L11.843 25.758C11.7257 25.9938 11.5668 26.2061 11.374 26.3843C11.166 26.5767 10.9225 26.7258 10.6575 26.823C10.3926 26.9202 10.1113 26.9636 9.82972 26.9508C9.54817 26.938 9.27186 26.8692 9.01658 26.7483C8.7613 26.6275 8.53205 26.4569 8.34191 26.2464C8.15178 26.0359 8.00448 25.7896 7.90843 25.5215C7.81238 25.2534 7.76945 24.9688 7.78211 24.6839C7.79383 24.4202 7.85294 24.1611 7.95636 23.9192L10.087 17.1258L8.55738 18.3267C8.15466 18.685 7.63329 18.8779 7.0962 18.8661C6.54631 18.8541 6.02207 18.6285 5.63201 18.2362C5.24194 17.8438 5.01595 17.3147 5.00081 16.7584C4.986 16.2139 5.17434 15.6841 5.52759 15.2741L9.7532 9.77848C9.77556 9.74941 9.79972 9.72181 9.82554 9.69585C10.3895 9.12879 11.1511 8.80861 11.9462 8.8043L11.9508 8.80429ZM11.9534 10.5386C11.6245 10.5409 11.309 10.6675 11.0683 10.8925L6.86384 16.3606C6.85118 16.3771 6.83795 16.3931 6.82415 16.4086C6.75053 16.4912 6.71115 16.5994 6.71418 16.7107C6.7172 16.8219 6.7624 16.9278 6.84042 17.0062C6.91843 17.0847 7.02328 17.1298 7.13325 17.1322C7.24323 17.1346 7.34991 17.0942 7.4312 17.0192C7.44796 17.0037 7.46531 16.9889 7.48322 16.9749L11.2112 14.0483C11.5076 13.8156 11.9192 13.805 12.2269 14.0222C12.5346 14.2394 12.6669 14.6338 12.5534 14.9957L9.57531 24.4909C9.56404 24.5268 9.55047 24.562 9.53469 24.5961C9.51064 24.6481 9.49695 24.7044 9.4944 24.7618C9.49185 24.8191 9.50049 24.8764 9.51983 24.9304C9.53917 24.9844 9.56883 25.034 9.60712 25.0764C9.64541 25.1188 9.69157 25.1531 9.74297 25.1775C9.79437 25.2018 9.85001 25.2157 9.90671 25.2182C9.96341 25.2208 10.02 25.2121 10.0734 25.1925C10.1268 25.1729 10.1758 25.1429 10.2177 25.1042C10.2596 25.0654 10.2935 25.0187 10.3176 24.9667C10.3331 24.9332 10.3507 24.9007 10.3703 24.8694L13.7983 19.4064C13.9555 19.1559 14.2285 19.0041 14.5218 19.0041C14.8151 19.0041 15.0881 19.1559 15.2453 19.4064L18.6733 24.8694C18.6993 24.9108 18.7217 24.9543 18.7404 24.9995C18.7628 25.0535 18.7956 25.1023 18.8371 25.1431C18.8786 25.1839 18.9278 25.2157 18.9818 25.2368C19.0357 25.2578 19.0933 25.2675 19.1511 25.2654C19.2089 25.2633 19.2657 25.2494 19.318 25.2245C19.3704 25.1996 19.4172 25.1643 19.4556 25.1206C19.4941 25.0769 19.5234 25.0258 19.5419 24.9704C19.5603 24.9149 19.5675 24.8562 19.5629 24.7979C19.5583 24.7396 19.5421 24.6828 19.5153 24.631C19.4919 24.5858 19.4725 24.5386 19.4574 24.49L16.49 14.9948C16.3769 14.633 16.5094 14.2389 16.8171 14.0219C17.1248 13.805 17.5361 13.8157 17.8324 14.0483L21.5604 16.9749C21.5682 16.981 21.5758 16.9872 21.5833 16.9935C21.6655 17.0627 21.7702 17.0983 21.877 17.0934C21.9838 17.0885 22.0849 17.0433 22.1605 16.9669C22.2361 16.8904 22.2807 16.7881 22.2855 16.6801C22.2904 16.572 22.2552 16.466 22.1868 16.3829C22.1808 16.3756 22.1749 16.3681 22.1691 16.3606L17.9623 10.8895C17.851 10.7834 17.7217 10.6984 17.5804 10.6385C17.4256 10.573 17.2596 10.539 17.0918 10.5386H11.9534Z" fill="white"/>
</g>
<defs>
<clipPath id="clip0_43_82">
<rect width="30" height="30" fill="white"/>
</clipPath>
</defs>
</svg>
