<svg width="32" height="32" viewBox="0 0 32 32" fill="none" xmlns="http://www.w3.org/2000/svg">
<path fill-rule="evenodd" clip-rule="evenodd" d="M15.9873 3C14.6066 3 13.4873 4.11929 13.4873 5.5C13.4873 6.88071 14.6066 8 15.9873 8C17.368 8 18.4873 6.88071 18.4873 5.5C18.4873 4.11929 17.368 3 15.9873 3ZM11.4873 5.5C11.4873 3.01472 13.502 1 15.9873 1C18.4726 1 20.4873 3.01472 20.4873 5.5C20.4873 7.98528 18.4726 10 15.9873 10C13.502 10 11.4873 7.98528 11.4873 5.5Z" fill="black"/>
<path fill-rule="evenodd" clip-rule="evenodd" d="M12.9875 10H18.9896C19.4493 10.001 19.9043 10.0928 20.3284 10.2703C20.7525 10.4477 21.1373 10.7073 21.4607 11.034C21.4886 11.0622 21.5149 11.0921 21.5393 11.1235L26.4804 17.4746C26.8716 17.9517 27.0727 18.5569 27.0445 19.1736C27.0161 19.7966 26.7559 20.3864 26.3149 20.8274C25.8739 21.2684 25.2841 21.5286 24.6611 21.557C24.0446 21.5852 23.4397 21.3843 22.9627 20.9934L21.1576 19.5929L23.6302 27.4125C23.7603 27.6869 23.8394 27.9829 23.8635 28.2861C23.8901 28.6224 23.8484 28.9607 23.7408 29.2805C23.6333 29.6002 23.4621 29.8949 23.2377 30.1468C23.0132 30.3987 22.7401 30.6025 22.4347 30.746C22.1294 30.8895 21.7982 30.9698 21.461 30.9819C21.1239 30.994 20.7878 30.9378 20.4729 30.8165C20.1581 30.6953 19.871 30.5116 19.6291 30.2765C19.41 30.0636 19.232 29.8126 19.1036 29.536L15.9875 24.6281L12.8617 29.5513C12.7248 29.8231 12.5394 30.0679 12.3145 30.2735C12.0717 30.4954 11.7876 30.6673 11.4785 30.7794C11.1693 30.8914 10.841 30.9415 10.5125 30.9267C10.184 30.912 9.86158 30.8326 9.56371 30.6933C9.26584 30.5539 8.99833 30.3572 8.77647 30.1145C8.55461 29.8717 8.38273 29.5876 8.27065 29.2785C8.15858 28.9693 8.10849 28.6411 8.12327 28.3125C8.13694 28.0085 8.20591 27.7097 8.32658 27.4307L10.8128 19.5965L9.02789 20.9813C8.55798 21.3946 7.94962 21.617 7.3229 21.6034C6.68127 21.5895 6.06955 21.3294 5.61441 20.877C5.15927 20.4245 4.89556 19.8143 4.8779 19.1728C4.86061 18.5448 5.08038 17.9339 5.49258 17.4611L10.4232 11.1235C10.4493 11.0899 10.4775 11.0581 10.5076 11.0282C11.1657 10.3742 12.0544 10.005 12.9822 10L12.9875 10ZM12.9905 12C12.6068 12.0026 12.2386 12.1486 11.9577 12.4082L7.05177 18.714C7.03701 18.733 7.02156 18.7515 7.00547 18.7693C6.91956 18.8647 6.87361 18.9894 6.87714 19.1178C6.88068 19.2461 6.93342 19.3681 7.02445 19.4586C7.11547 19.5491 7.23782 19.6011 7.36614 19.6039C7.49447 19.6066 7.61895 19.56 7.7138 19.4735C7.73335 19.4557 7.7536 19.4386 7.77451 19.4224L12.1245 16.0474C12.4704 15.7791 12.9506 15.7669 13.3097 16.0173C13.6687 16.2678 13.8231 16.7227 13.6907 17.14L10.2157 28.09C10.2025 28.1314 10.1867 28.1719 10.1683 28.2113C10.1402 28.2713 10.1242 28.3362 10.1212 28.4023C10.1183 28.4685 10.1284 28.5346 10.1509 28.5969C10.1735 28.6591 10.2081 28.7163 10.2528 28.7652C10.2975 28.8141 10.3513 28.8537 10.4113 28.8817C10.4713 28.9098 10.5362 28.9258 10.6024 28.9288C10.6685 28.9317 10.7346 28.9216 10.7969 28.8991C10.8591 28.8765 10.9163 28.8419 10.9652 28.7972C11.0141 28.7526 11.0537 28.6987 11.0817 28.6387C11.0998 28.6 11.1204 28.5625 11.1433 28.5265L15.1433 22.2265C15.3267 21.9375 15.6452 21.7625 15.9875 21.7625C16.3298 21.7625 16.6483 21.9375 16.8317 22.2265L20.8317 28.5265C20.862 28.5742 20.8882 28.6244 20.91 28.6765C20.9361 28.7387 20.9744 28.7951 21.0228 28.8421C21.0712 28.8891 21.1286 28.9259 21.1916 28.9501C21.2546 28.9744 21.3218 28.9856 21.3892 28.9832C21.4566 28.9808 21.5229 28.9647 21.584 28.936C21.645 28.9073 21.6996 28.8665 21.7445 28.8162C21.7894 28.7658 21.8237 28.7069 21.8452 28.6429C21.8667 28.5789 21.875 28.5113 21.8697 28.444C21.8644 28.3768 21.8455 28.3113 21.8142 28.2515C21.7869 28.1994 21.7643 28.1451 21.7465 28.089L18.284 17.139C18.1521 16.7218 18.3068 16.2672 18.6658 16.0171C19.0248 15.7669 19.5048 15.7792 19.8505 16.0474L24.2005 19.4224C24.2095 19.4294 24.2185 19.4366 24.2273 19.4439C24.3231 19.5237 24.4453 19.5648 24.5699 19.5591C24.6945 19.5534 24.8125 19.5014 24.9007 19.4132C24.9889 19.325 25.0409 19.207 25.0466 19.0824C25.0523 18.9578 25.0112 18.8356 24.9314 18.7398C24.9244 18.7313 24.9175 18.7227 24.9107 18.714L20.0021 12.4047C19.8722 12.2823 19.7212 12.1843 19.5564 12.1153C19.3758 12.0397 19.1821 12.0005 18.9863 12H12.9905Z" fill="black"/>
</svg>
