<svg width="30" height="30" viewBox="0 0 30 30" fill="none" xmlns="http://www.w3.org/2000/svg">
<g clip-path="url(#clip0_43_88)">
<path fill-rule="evenodd" clip-rule="evenodd" d="M25.4483 4.43353L19.7209 10.2992L21.9515 12.5298L27.5327 6.57143C27.5401 6.56348 27.5477 6.55565 27.5554 6.54794C27.8353 6.26804 27.9926 5.8884 27.9926 5.49255C27.9926 5.0967 27.8353 4.71707 27.5554 4.43716C27.2755 4.15725 26.8959 4 26.5 4C26.1059 4 25.7278 4.15589 25.4483 4.43353ZM21.2707 14.6774C21.2685 14.6753 21.2664 14.6732 21.2643 14.6711L18.3236 11.7303L5.03492 25.3399C10.3863 26.008 14.9477 24.0702 18.3142 21.7896C20.1818 20.5244 21.6612 19.1662 22.6732 18.124C23.0768 17.7084 23.4047 17.3444 23.6519 17.0586L21.2707 14.6774ZM25 16.9926L25.8 17.5926C26.0986 17.1944 26.059 16.6373 25.7071 16.2854L23.3665 13.9448L28.9821 7.94961C29.6293 7.29586 29.9926 6.41293 29.9926 5.49255C29.9926 4.56627 29.6246 3.67793 28.9696 3.02294C28.3146 2.36796 27.4263 2 26.5 2C25.5737 2 24.6854 2.36796 24.0304 3.02294L17.6593 9.54779C17.6409 9.56373 17.6229 9.58044 17.6054 9.59794C17.5821 9.62125 17.5602 9.64542 17.5397 9.67035L2.28453 25.2939C2.03206 25.5525 1.93874 25.9272 2.04044 26.274C2.14214 26.6207 2.42303 26.8857 2.77516 26.9669C9.64077 28.5513 15.4259 26.1619 19.4359 23.4455C21.4432 22.0857 23.0263 20.6314 24.1081 19.5173C24.6497 18.9595 25.0678 18.4847 25.3527 18.1466C25.4952 17.9775 25.6045 17.8423 25.6794 17.7478C25.7169 17.7005 25.7458 17.6634 25.7659 17.6373L25.7896 17.6064L25.7965 17.5973L25.7987 17.5944L25.8 17.5926C25.8 17.5926 25.8 17.5926 25 16.9926Z" fill="white"/>
</g>
<defs>
<clipPath id="clip0_43_88">
<rect width="30" height="30" fill="white"/>
</clipPath>
</defs>
</svg>
