<svg width="28" height="26" viewBox="0 0 28 26" fill="none" xmlns="http://www.w3.org/2000/svg">
<path fill-rule="evenodd" clip-rule="evenodd" d="M23.4483 2.43353L17.7209 8.29922L19.9515 10.5298L25.5327 4.57143C25.5401 4.56348 25.5477 4.55565 25.5554 4.54794C25.8353 4.26804 25.9926 3.8884 25.9926 3.49255C25.9926 3.0967 25.8353 2.71707 25.5554 2.43716C25.2755 2.15725 24.8959 2 24.5 2C24.1059 2 23.7278 2.15589 23.4483 2.43353ZM19.2707 12.6774C19.2685 12.6753 19.2664 12.6732 19.2643 12.6711L16.3236 9.73031L3.03492 23.3399C8.38628 24.008 12.9477 22.0702 16.3142 19.7896C18.1818 18.5244 19.6612 17.1662 20.6732 16.124C21.0768 15.7084 21.4047 15.3444 21.6519 15.0586L19.2707 12.6774ZM23 14.9926L23.8 15.5926C24.0986 15.1944 24.059 14.6373 23.7071 14.2854L21.3665 11.9448L26.9821 5.94961C27.6293 5.29586 27.9926 4.41293 27.9926 3.49255C27.9926 2.56627 27.6246 1.67793 26.9696 1.02294C26.3146 0.367964 25.4263 0 24.5 0C23.5737 0 22.6854 0.367964 22.0304 1.02294L15.6593 7.54779C15.6409 7.56373 15.6229 7.58044 15.6054 7.59794C15.5821 7.62125 15.5602 7.64542 15.5397 7.67035L0.28453 23.2939C0.0320559 23.5525 -0.0612636 23.9272 0.0404358 24.274C0.142135 24.6207 0.423028 24.8857 0.775163 24.9669C7.64077 26.5513 13.4259 24.1619 17.4359 21.4455C19.4432 20.0857 21.0263 18.6314 22.1081 17.5173C22.6497 16.9595 23.0678 16.4847 23.3527 16.1466C23.4952 15.9775 23.6045 15.8423 23.6794 15.7478C23.7169 15.7005 23.7458 15.6634 23.7659 15.6373L23.7896 15.6064L23.7965 15.5973L23.7987 15.5944L23.8 15.5926C23.8 15.5926 23.8 15.5926 23 14.9926Z" fill="black"/>
</svg>
